<?xml version="1.0" encoding="utf-8"?>
<!-- Generator: Adobe Illustrator 16.0.0, SVG Export Plug-In . SVG Version: 6.00 Build 0)  -->
<!DOCTYPE svg PUBLIC "-//W3C//DTD SVG 1.1//EN" "http://www.w3.org/Graphics/SVG/1.1/DTD/svg11.dtd">
<svg version="1.1" id="Layer_1" xmlns="http://www.w3.org/2000/svg" xmlns:xlink="http://www.w3.org/1999/xlink" x="0px" y="0px"
	 width="595.28px" height="129px" viewBox="0 0 595.28 129" enable-background="new 0 0 595.28 129" xml:space="preserve">
<g>
	<line stroke="#000000" stroke-width="0.4473" stroke-miterlimit="10" x1="5.047" y1="33.998" x2="296.722" y2="33.998"/>
	<polygon points="26.198,33.998 34.209,45.823 40.25,37.773 46.358,45.823 55.116,33.998 	"/>
	<polygon points="62.464,33.998 70.477,45.823 76.514,37.773 82.624,45.823 91.381,33.998 	"/>
	<polygon points="98.889,33.998 106.902,45.824 112.941,37.773 119.05,45.824 127.807,33.998 	"/>
	<polygon points="136.116,33.998 144.13,45.823 150.167,37.773 156.276,45.823 165.034,33.998 	"/>
	<polygon points="173.394,33.998 181.408,45.823 187.445,37.773 193.556,45.823 202.313,33.998 	"/>
	<polygon points="211.049,33.998 219.062,45.824 225.101,37.773 231.208,45.824 239.967,33.998 	"/>
	<polygon points="247.821,33.998 255.833,45.824 261.871,37.773 267.98,45.824 276.738,33.998 	"/>
	<polygon points="74.018,96.824 76.794,84.519 79.702,96.824 	"/>
	<polygon points="110.506,96.824 113.282,84.519 116.192,96.824 	"/>
	<polygon points="147.475,96.824 150.25,84.519 153.158,96.824 	"/>
	<polygon points="185.013,96.824 187.786,84.519 190.696,96.824 	"/>
	<polygon points="222.416,96.824 225.191,84.519 228.102,96.824 	"/>
	<polygon points="37.312,96.824 40.086,84.519 42.994,96.824 	"/>
	<polygon points="259.436,96.824 262.213,84.519 265.122,96.824 	"/>
	<line stroke="#000000" stroke-width="1.073" stroke-miterlimit="10" x1="300.18" y1="33.998" x2="590.731" y2="33.998"/>
	<polygon points="321.329,33.998 329.343,45.823 335.382,37.773 341.49,45.823 350.246,33.998 	"/>
	<polygon points="357.596,33.998 365.609,45.823 371.646,37.773 377.756,45.823 386.512,33.998 	"/>
	<polygon points="394.02,33.998 402.036,45.824 408.073,37.773 414.183,45.824 422.939,33.998 	"/>
	<polygon points="431.248,33.998 439.261,45.823 445.3,37.773 451.408,45.823 460.167,33.998 	"/>
	<polygon points="468.526,33.998 476.542,45.823 482.577,37.773 488.687,45.823 497.444,33.998 	"/>
	<polygon points="506.18,33.998 514.193,45.824 520.231,37.773 526.34,45.824 535.099,33.998 	"/>
	<polygon points="542.953,33.998 550.966,45.824 557.004,37.773 563.112,45.824 571.87,33.998 	"/>
	<g>
		<polygon points="5.047,21.546 13.203,31.159 20.455,21.546 27.159,31.159 34.409,21.546 41.745,31.159 48.997,21.546 
			56.58,30.813 63.831,21.546 71.001,31.159 78.25,21.546 78.25,17.037 5.047,17.037 		"/>
		<polygon points="78.25,21.546 86.408,31.159 93.659,21.546 100.361,31.159 107.613,21.546 114.949,31.159 122.2,21.546 
			129.785,30.813 137.035,21.546 144.204,31.159 151.455,21.546 151.455,17.037 78.25,17.037 		"/>
		<polygon points="151.455,21.546 159.612,31.159 166.862,21.546 173.566,31.159 180.818,21.546 188.154,31.159 195.404,21.546 
			202.988,30.813 210.24,21.546 217.407,31.159 224.657,21.546 224.657,17.037 151.455,17.037 		"/>
		<polygon points="224.657,21.546 232.815,31.159 240.067,21.546 246.77,31.159 254.02,21.546 261.356,31.159 268.608,21.546 
			276.192,30.813 283.442,21.546 290.611,31.159 297.863,21.546 297.863,17.037 224.657,17.037 		"/>
	</g>
	<g>
		<polygon points="297.658,21.546 305.815,31.159 313.067,21.546 319.771,31.159 327.024,21.546 334.359,31.159 341.608,21.546 
			349.192,30.813 356.444,21.546 363.614,31.159 370.863,21.546 370.863,17.037 297.658,17.037 		"/>
		<polygon points="370.863,21.546 379.02,31.159 386.271,21.546 392.976,31.159 400.225,21.546 407.562,31.159 414.812,21.546 
			422.396,30.813 429.646,21.546 436.815,31.159 444.068,21.546 444.068,17.037 370.863,17.037 		"/>
		<polygon points="444.068,21.546 452.226,31.159 459.474,21.546 466.178,31.159 473.431,21.546 480.765,31.159 488.015,21.546 
			495.6,30.813 502.853,21.546 510.021,31.159 517.271,21.546 517.271,17.037 444.068,17.037 		"/>
		<polygon points="517.271,21.546 525.429,31.159 532.679,21.546 539.382,31.159 546.633,21.546 553.97,31.159 561.22,21.546 
			568.805,30.813 576.054,21.546 583.223,31.159 590.476,21.546 590.476,17.037 517.271,17.037 		"/>
	</g>
	<g>
		<g>
			<polygon points="297.951,109.602 289.791,99.982 282.537,109.602 275.831,99.982 268.579,109.602 261.241,99.982 
				253.988,109.602 246.403,100.33 239.149,109.602 231.979,99.982 224.725,109.602 224.725,114.107 297.951,114.107 			"/>
			<polygon points="224.725,109.602 216.566,99.982 209.313,109.602 202.607,99.982 195.353,109.602 188.018,99.982 
				180.763,109.602 173.178,100.33 165.925,109.602 158.755,99.982 151.501,109.602 151.501,114.107 224.725,114.107 			"/>
			<polygon points="151.501,109.602 143.342,99.982 136.088,109.602 129.383,99.982 122.13,109.602 114.791,99.982 107.54,109.602 
				99.951,100.33 92.7,109.602 85.532,99.982 78.277,109.602 78.277,114.107 151.501,114.107 			"/>
			<polygon points="78.277,109.602 70.118,99.982 62.865,109.602 56.158,99.982 48.906,109.602 41.568,99.982 34.314,109.602 
				26.728,100.33 19.477,109.602 12.305,99.982 5.051,109.602 5.051,114.107 78.277,114.107 			"/>
		</g>
		<g>
			<polygon points="590.562,109.602 582.403,99.982 575.148,109.602 568.445,99.982 561.191,109.602 553.854,99.982 546.6,109.602 
				539.014,100.33 531.76,109.602 524.59,99.982 517.336,109.602 517.336,114.107 590.562,114.107 			"/>
			<polygon points="517.336,109.602 509.179,99.982 501.924,109.602 495.22,99.982 487.968,109.602 480.629,99.982 473.376,109.602 
				465.79,100.33 458.536,109.602 451.365,99.982 444.115,109.602 444.115,114.107 517.336,114.107 			"/>
			<polygon points="444.115,109.602 435.954,99.982 428.7,109.602 421.996,99.982 414.742,109.602 407.404,99.982 400.15,109.602 
				392.565,100.33 385.313,109.602 378.14,99.982 370.889,109.602 370.889,114.107 444.115,114.107 			"/>
			<polygon points="370.889,109.602 362.729,99.982 355.477,109.602 348.771,99.982 341.516,109.602 334.18,99.982 326.926,109.602 
				319.342,100.33 312.088,109.602 304.917,99.982 297.664,109.602 297.664,114.107 370.889,114.107 			"/>
		</g>
	</g>
	<polygon points="369.148,96.824 371.924,84.519 374.833,96.824 	"/>
	<polygon points="405.638,96.824 408.413,84.519 411.322,96.824 	"/>
	<polygon points="442.606,96.824 445.382,84.519 448.289,96.824 	"/>
	<polygon points="480.144,96.824 482.918,84.519 485.829,96.824 	"/>
	<polygon points="517.547,96.824 520.322,84.519 523.23,96.824 	"/>
	<polygon points="332.441,96.824 335.218,84.519 338.128,96.824 	"/>
	<polygon points="554.569,96.824 557.346,84.519 560.252,96.824 	"/>
	<polygon points="295.899,96.824 298.674,84.519 301.582,96.824 	"/>
	<polygon points="284.387,33.882 292.4,45.707 298.44,37.657 304.549,45.707 313.307,33.882 	"/>
	<polygon points="5.102,40.614 8.968,45.707 17.727,33.882 5.102,33.882 	"/>
	<polygon points="590.789,33.882 579.296,33.882 587.312,45.707 590.789,41.073 	"/>
	
		<line fill="none" stroke="#000000" stroke-width="2.6843" stroke-miterlimit="10" x1="590.322" y1="12.692" x2="5.184" y2="12.692"/>
	
		<line fill="none" stroke="#000000" stroke-width="2.6853" stroke-miterlimit="10" x1="591.596" y1="118.907" x2="5.184" y2="118.907"/>
	<g>
		<polygon points="21.701,33.998 6.407,57.414 13.463,80.845 8.81,84.519 14.442,84.519 15.584,89.007 5.962,96.824 21.701,96.824 
			21.7,93.638 15.9,94.494 21.584,91.008 12.894,54.851 21.7,39.985 		"/>
		<polygon points="21.574,33.998 36.868,57.414 29.812,80.845 34.465,84.519 28.833,84.519 27.69,89.007 37.312,96.824 
			21.574,96.824 21.575,93.638 27.375,94.494 21.691,91.008 30.381,54.851 21.575,39.985 		"/>
	</g>
	<g>
		<polygon points="58.406,33.998 43.112,57.414 50.168,80.845 45.515,84.519 51.147,84.519 52.29,89.007 42.667,96.824 
			58.406,96.824 58.405,93.638 52.605,94.494 58.289,91.008 49.599,54.851 58.405,39.985 		"/>
		<polygon points="58.279,33.998 73.573,57.414 66.517,80.845 71.17,84.519 65.538,84.519 64.396,89.007 74.018,96.824 
			58.279,96.824 58.28,93.638 64.08,94.494 58.396,91.008 67.086,54.851 58.28,39.985 		"/>
	</g>
	<g>
		<polygon points="94.895,33.998 79.601,57.414 86.657,80.845 82.003,84.519 87.636,84.519 88.778,89.007 79.156,96.824 
			94.895,96.824 94.894,93.638 89.094,94.494 94.777,91.008 86.087,54.851 94.894,39.985 		"/>
		<polygon points="94.768,33.998 110.062,57.414 103.005,80.845 107.659,84.519 102.026,84.519 100.884,89.007 110.506,96.824 
			94.768,96.824 94.769,93.638 100.568,94.494 94.885,91.008 103.575,54.851 94.769,39.985 		"/>
	</g>
	<g>
		<polygon points="131.931,33.998 116.637,57.414 123.693,80.845 119.04,84.519 124.672,84.519 125.814,89.007 116.192,96.824 
			131.931,96.824 131.93,93.638 126.13,94.494 131.814,91.008 123.124,54.851 131.93,39.985 		"/>
		<polygon points="131.804,33.998 147.098,57.414 140.042,80.845 144.695,84.519 139.063,84.519 137.92,89.007 147.542,96.824 
			131.804,96.824 131.805,93.638 137.604,94.494 131.921,91.008 140.611,54.851 131.805,39.985 		"/>
	</g>
	<g>
		<polygon points="168.896,33.998 153.602,57.414 160.658,80.845 156.005,84.519 161.637,84.519 162.779,89.007 153.158,96.824 
			168.896,96.824 168.895,93.638 163.095,94.494 168.779,91.008 160.089,54.851 168.895,39.985 		"/>
		<polygon points="168.769,33.998 184.063,57.414 177.007,80.845 181.66,84.519 176.027,84.519 174.885,89.007 184.507,96.824 
			168.769,96.824 168.77,93.638 174.57,94.494 168.886,91.008 177.576,54.851 168.77,39.985 		"/>
	</g>
	<g>
		<polygon points="206.435,33.998 191.141,57.414 198.197,80.845 193.544,84.519 199.176,84.519 200.318,89.007 190.696,96.824 
			206.435,96.824 206.434,93.638 200.634,94.494 206.318,91.008 197.627,54.851 206.434,39.985 		"/>
		<polygon points="206.308,33.998 221.602,57.414 214.546,80.845 219.199,84.519 213.566,84.519 212.424,89.007 222.046,96.824 
			206.308,96.824 206.309,93.638 212.108,94.494 206.425,91.008 215.115,54.851 206.309,39.985 		"/>
	</g>
	<g>
		<polygon points="243.618,33.998 228.324,57.414 235.38,80.845 230.727,84.519 236.359,84.519 237.501,89.007 227.879,96.824 
			243.618,96.824 243.617,93.638 237.817,94.494 243.5,91.008 234.811,54.851 243.617,39.985 		"/>
		<polygon points="243.491,33.998 258.785,57.414 251.729,80.845 256.382,84.519 250.749,84.519 249.607,89.007 259.229,96.824 
			243.491,96.824 243.492,93.638 249.292,94.494 243.607,91.008 252.298,54.851 243.492,39.985 		"/>
	</g>
	<g>
		<polygon points="280.288,33.998 264.994,57.414 272.05,80.845 267.396,84.519 273.029,84.519 274.171,89.007 264.549,96.824 
			280.288,96.824 280.287,93.638 274.487,94.494 280.171,91.008 271.48,54.851 280.287,39.985 		"/>
		<polygon points="280.161,33.998 295.455,57.414 288.399,80.845 293.052,84.519 287.419,84.519 286.277,89.007 295.899,96.824 
			280.161,96.824 280.162,93.638 285.961,94.494 280.278,91.008 288.968,54.851 280.162,39.985 		"/>
	</g>
	<g>
		<polygon points="316.895,33.998 301.6,57.414 308.656,80.845 304.003,84.519 309.636,84.519 310.777,89.007 301.156,96.824 
			316.895,96.824 316.894,93.638 311.094,94.494 316.777,91.008 308.087,54.851 316.894,39.985 		"/>
		<polygon points="316.768,33.998 332.062,57.414 325.005,80.845 329.658,84.519 324.025,84.519 322.884,89.007 332.506,96.824 
			316.768,96.824 316.769,93.638 322.568,94.494 316.884,91.008 325.574,54.851 316.769,39.985 		"/>
	</g>
	<g>
		<polygon points="353.866,33.998 338.572,57.414 345.629,80.845 340.976,84.519 346.607,84.519 347.75,89.007 338.128,96.824 
			353.866,96.824 353.865,93.638 348.065,94.494 353.749,91.008 345.06,54.851 353.865,39.985 		"/>
		<polygon points="353.739,33.998 369.033,57.414 361.978,80.845 366.631,84.519 360.998,84.519 359.855,89.007 369.478,96.824 
			353.739,96.824 353.74,93.638 359.54,94.494 353.856,91.008 362.547,54.851 353.74,39.985 		"/>
	</g>
	<g>
		<polygon points="389.964,33.998 374.67,57.414 381.726,80.845 377.072,84.519 382.705,84.519 383.848,89.007 374.226,96.824 
			389.964,96.824 389.963,93.638 384.163,94.494 389.847,91.008 381.156,54.851 389.963,39.985 		"/>
		<polygon points="389.837,33.998 405.131,57.414 398.075,80.845 402.728,84.519 397.096,84.519 395.953,89.007 405.575,96.824 
			389.837,96.824 389.838,93.638 395.638,94.494 389.954,91.008 398.644,54.851 389.838,39.985 		"/>
	</g>
	<g>
		<polygon points="426.638,33.998 411.344,57.414 418.399,80.845 413.746,84.519 419.379,84.519 420.521,89.007 410.899,96.824 
			426.638,96.824 426.637,93.638 420.837,94.494 426.521,91.008 417.83,54.851 426.637,39.985 		"/>
		<polygon points="426.511,33.998 441.805,57.414 434.748,80.845 439.401,84.519 433.77,84.519 432.627,89.007 442.249,96.824 
			426.511,96.824 426.512,93.638 432.312,94.494 426.628,91.008 435.317,54.851 426.512,39.985 		"/>
	</g>
	<g>
		<polygon points="464.027,33.882 448.733,57.298 455.789,80.729 451.136,84.402 456.769,84.402 457.911,88.891 448.289,96.708 
			464.027,96.708 464.026,93.522 458.227,94.379 463.91,90.891 455.22,54.735 464.026,39.869 		"/>
		<polygon points="463.9,33.882 479.194,57.298 472.139,80.729 476.791,84.402 471.159,84.402 470.017,88.891 479.639,96.708 
			463.9,96.708 463.901,93.522 469.701,94.379 464.018,90.891 472.707,54.735 463.901,39.869 		"/>
	</g>
	<g>
		<polygon points="501.567,33.998 486.273,57.414 493.329,80.845 488.676,84.519 494.309,84.519 495.45,89.007 485.829,96.824 
			501.567,96.824 501.566,93.638 495.767,94.494 501.45,91.008 492.76,54.851 501.566,39.985 		"/>
		<polygon points="501.44,33.998 516.734,57.414 509.678,80.845 514.331,84.519 508.698,84.519 507.557,89.007 517.179,96.824 
			501.44,96.824 501.441,93.638 507.241,94.494 501.557,91.008 510.247,54.851 501.441,39.985 		"/>
	</g>
	<g>
		<polygon points="538.969,33.882 523.674,57.298 530.73,80.729 526.077,84.402 531.71,84.402 532.852,88.891 523.23,96.708 
			538.969,96.708 538.968,93.522 533.168,94.379 538.852,90.891 530.161,54.735 538.968,39.869 		"/>
		<polygon points="538.842,33.882 554.136,57.298 547.079,80.729 551.732,84.402 546.1,84.402 544.958,88.891 554.58,96.708 
			538.842,96.708 538.843,93.522 544.643,94.379 538.958,90.891 547.648,54.735 538.843,39.869 		"/>
	</g>
	<g>
		<polygon points="575.99,33.882 560.696,57.298 567.752,80.729 563.1,84.402 568.731,84.402 569.874,88.891 560.252,96.708 
			575.99,96.708 575.989,93.522 570.189,94.379 575.873,90.891 567.183,54.735 575.989,39.869 		"/>
		<polygon points="575.863,33.882 591.157,57.298 584.102,80.729 588.754,84.402 583.122,84.402 581.979,88.891 591.602,96.708 
			575.863,96.708 575.864,93.522 581.664,94.379 575.98,90.891 584.67,54.735 575.864,39.869 		"/>
	</g>
</g>
</svg>
